<?xml version="1.0" encoding="utf-8"?>
<!-- Generator: Adobe Illustrator 16.0.3, SVG Export Plug-In . SVG Version: 6.00 Build 0)  -->
<!DOCTYPE svg PUBLIC "-//W3C//DTD SVG 1.1//EN" "http://www.w3.org/Graphics/SVG/1.1/DTD/svg11.dtd">

<!--

Author: <Jonathan> <Justavino	Lüderitz>, <4102359>

-->

<svg version="1.1" id="Ebene_1" xmlns="http://www.w3.org/2000/svg" xmlns:xlink="http://www.w3.org/1999/xlink" x="0px" y="0px"
	 width="840px" height="840px" viewBox="0 0 840 840" enable-background="new 0 0 840 840" xml:space="preserve">

	 <g transform="translate(60,20)">
		<!-- Nebenstrassen -->
		<path fill="none" stroke="#B2B2B2" stroke-width="7" d="M704.895,505.193l-119.25-12.74l-11.334,28.734l-227.516,3.514
			 M392.228,611.351l36.908-21.967l46.136-12.834l227.422-38.666 M191.34,352.288l30.843,56.417l20.655,168.548 M78.449,387.749
			l45.471,33.164 M227.665,333.839l31.184,53.612 M204.967,241.852l112.62,79.683l33.547,238.439l2.781,4.188l1.054,4.566
			l-0.703,6.064l-4.31,31.547 M481.985,241.783L288.439,107.844 M417.618,74.296L226.783,334.124l-35.442,18.455l-47.602-36.909
			 M371.054,240.385l80.111-106.327l73.815-9.227l170.387,56.5 M454.526,134.059L386.575,89.39 M555.594,347.75L654.16,48.082
			 M529.809,217.103l118.057,41.737l-12.222,38.788l-19.858,41.827l-9.578,53.958 M661.92,406.475l-1.467-21.815l61.229-87.444
			 M732.803,41.787l-66.055,209.292 M634.238,295.749l43.203,13.626l22.854,15.521 M646.398,260.306l6.295-16.988l35.44,13.626
			l-16.987,48.031 M355.32,564.162l21.265,3.162l23.817,6.064l23.373,13.793l6.768,3.959 M494.428,524.701l-23.816,52.201
			 M401.455,571.984l28.033-46.84 M552.6,653.529l27.682,6.418l41.567,14.238l96.839,17.4l15.563,2.377 M572.109,570.484
			l158.264,46.934l-12.037,73.371 M222.535,409.759l37.962-21.616l249.13-22.061 M412.438,293.669l12.038,78.479 M165.195,409.919
			l13.757,22.159l15.901,130.328 M71.038,460.906l14.145,23.373l6.417,54.309 M724.758,348.903l-30.016-11.563
			M131.774,428.9 l12.023,22.674 l8.031,64 l-6.012,33.326 M515.754,217.103 l-22.854,-167.555 M99.111,403.574 l218.475,-295.730"/>

		<!-- Bergstrasse -->
		<polyline fill="none" stroke="#B2B2B2" stroke-width="15" points="518,220 575,607 548,650 541,687 540,687 531,715 531,716"/>

		<!-- Zellscher Weg -->
		<g>
			<polyline fill="none" stroke="#B2B2B2" stroke-width="15" points="300,189 535,355 543,373 595,397 714,417"/>
			<line fill="none" stroke="#B2B2B2" stroke-width="15" x1="234" y1="141" x2="220" y2="132"/>
		</g>

		<!-- Nuernberger Ei -->
		<path fill="none" stroke="#B2B2B2" stroke-width="15" d="M236.387,143.65c5.076-7.526,24.531-3.279,43.455,9.485
			c18.924,12.765,30.149,29.213,25.074,36.739c-5.076,7.525-24.531,3.279-43.455-9.486
			C242.537,167.623,231.311,151.176,236.387,143.65L236.387,143.65z"/>

		<!-- Fritz-Foerster-Platz -->
		<circle fill="#B2B2B2" cx="536" cy="356" r="24"/>

		<!-- Nuernberger Platz -->
		<circle fill="#B2B2B2" cx="410" cy="274" r="24"/>

		<!-- Muenchner Strasse -->
		<g>
			<polyline fill="none" stroke="#B2B2B2" stroke-width="15" points="579,57 529,213 54,461 0,490 -10,495 -35,509 75,539"/>
			<line fill="none" stroke="#B2B2B2" stroke-width="15" stroke-dasharray="2,2" x1="586" y1="39" x2="580" y2="57"/>

			<!-- Bus Linie 85 Teil 1-->
			<polyline fill="none" stroke="#c99d66" stroke-width="15" points=" -35,509 71,538 311,597 428,632 510,654 547,654"/>

			<!-- Straßenbahn Linie 3-->
			<polyline fill="none" stroke="#e5005a" stroke-width="15" points="579,57 529,213 54,461 0,490 -10,495 -35,509"/>
			<line fill="none" stroke="#e5005a" stroke-width="15" stroke-dasharray="2,2" x1="586" y1="39" x2="580" y2="57"/>
			<!-- Straßenbahn Linie 3 Haltestelle: Nöthnitzerstraße -->
			<g>
				<polygon points="-27,493 -54,493 -54,520" rx="15" ry="15" width="29" height="29" fill="#e5005a"/>
				<polygon points="-27,493 -54,520 -27,520" rx="5" ry="5" width="29" height="29" fill="#c99d66"/>
				<rect x="-55" y="492" rx="5" ry="5" width="29" height="29" stroke-width="2" stroke="#000" fill="none"/>
				<text x="-52" y="506" stroke="#FFF" fill="#FFF">3</text>
				<text x="-43" y="519" stroke="#FFF" fill="#FFF">85</text>
			</g>
			<!-- Straßenbahn Linie 3 Haltestelle: Münchener Platz -->
			<g>
				<rect x="210" y="357" rx="5" ry="5" width="29" height="29" stroke-width="2" stroke="#000" fill="#e5005a"/>
				<text x="221" y="377" stroke="#FFF" fill="#FFF">3</text>
			</g>
			<!-- Straßenbahn Linie 3 Haltestelle: Nürnberger Platz -->
			<g>
				<rect x="396" y="260" rx="5" ry="5" width="29" height="29" stroke-width="2" stroke="#000" fill="#e5005a"/>
				<text x="407" y="280" stroke="#FFF" fill="#FFF">3</text>
			</g>
			<!-- Straßenbahn Linie 3 Haltestelle: Reichenbachstraße -->
			<g>
				<rect x="539" y="120" rx="5" ry="5" width="29" height="29" stroke-width="2" stroke="#000" fill="#e5005a"/>
				<text x="550" y="140" stroke="#FFF" fill="#FFF">3</text>
			</g>
		</g>

		<g>
			<!-- Noethnitzer Strasse -->
			<polyline fill="none" stroke="#B2B2B2" stroke-width="15" points=" 71,538 311,597 428,632 510,654 547,654"/>
			<!-- Bus Linie 85 Teil 2 -->
			<polyline fill="none" stroke="#c99d66" stroke-width="15" points=" 71,538 311,597 428,632 510,654 538,654"/>
			<!-- Bus Linie 85 Haltestelle: Helmholtzstraße -->
			<g>
				<rect x="290" y="581" rx="5" ry="5" width="29" height="29" stroke="#000" fill="#c99d66" stroke-width="2"/>
				<text x="297" y="601" stroke="#FFF" fill="#FFF">85</text>
			</g>
			<!-- Bus Linie 85 Haltestelle: Regensburger Straße -->
			<g>
				<rect x="96" y="533" rx="5" ry="5" width="29" height="29" stroke="#000" fill="#c99d66" stroke-width="2"/>
				<text x="103" y="553" stroke="#FFF" fill="#FFF">85</text>
			</g>
		</g>

		<!-- Hauptbahnhof -->
		<polyline fill="#FFFFFF" stroke="#000000" stroke-width="1" points="531,17 529,24 628,41 632,23"/>

		<!-- Fakutaet -->
		<g>
			<polygon fill="none" stroke="#000000" stroke-width="1" points="242,591 279,601 273,619 279,621 283,609 299,613 290,640
				257,630 260,621 234,614"/>
			<polygon fill="#FFFFFF" stroke="#000000" stroke-width="1" points="247,599 244,608 261,613 264,604"/>
		</g>
	</g>
</svg>
